<!DOCTYPE svg PUBLIC "-//W3C//DTD SVG 1.1//EN" "http://www.w3.org/Graphics/SVG/1.1/DTD/svg11.dtd">
<svg width="48px" height="48px" viewBox="-1.44 -1.44 26.88 26.88" fill="none" xmlns="http://www.w3.org/2000/svg" stroke="#ffffff" stroke-width="0.00024000000000000003" transform="matrix(1, 0, 0, 1, 0, 0)rotate(0)">

<g id="SVGRepo_bgCarrier" stroke-width="0" transform="translate(0,0), scale(1)">

<rect x="-1" y="-1" width="26" height="26" rx="13.44" fill="#205e99" strokewidth="0"/>

</g>

<g id="SVGRepo_tracerCarrier" stroke-linecap="round" stroke-linejoin="round" stroke="#ffffff" stroke-width="3.8"> <path fill-rule="evenodd" clip-rule="evenodd" d="M22 12C22 17.5228 17.5228 22 12 22C6.47715 22 2 17.5228 2 12C2 6.47715 6.47715 2 12 2C17.5228 2 22 6.47715 22 12ZM7.005 9C7.005 8.45 7.45 8 8 8H16C16.55 8 17 8.45 17 9V15C17 15.55 16.55 16 16 16H8C7.45 16 7 15.55 7 15L7.005 9ZM12 12.5L8.00001 9.99997V15H16V9.99997L12 12.5ZM12 11.5L8.00001 9.00001H16L12 11.5Z" fill="#205e99"/> </g>

<g id="SVGRepo_iconCarrier"> <path fill-rule="evenodd" clip-rule="evenodd" d="M22 12C22 17.5228 17.5228 22 12 22C6.47715 22 2 17.5228 2 12C2 6.47715 6.47715 2 12 2C17.5228 2 22 6.47715 22 12ZM7.005 9C7.005 8.45 7.45 8 8 8H16C16.55 8 17 8.45 17 9V15C17 15.55 16.55 16 16 16H8C7.45 16 7 15.55 7 15L7.005 9ZM12 12.5L8.00001 9.99997V15H16V9.99997L12 12.5ZM12 11.5L8.00001 9.00001H16L12 11.5Z" fill="#205e99"/> </g>

</svg>