<svg width="0" height="0" class="hidden">
<symbol version="1.1" xmlns="http://www.w3.org/2000/svg" stroke="#fff" stroke-width="0.704" transform="rotate(0)" viewBox="-12 -12 56 56" id="phone">
    <circle r="26" cx="16" cy="16.2" stroke="#205e99" stroke-width="3"></circle>
    <circle r="24" cx="16" cy="16.2" stroke="#fff" stroke-width="3"></circle>
    <circle r="22" cx="16" cy="16.2" fill="#inherit" stroke-width="0"></circle>
    <g id="SVGRepo_iconCarrier"  fill="#205e99" stroke="#ffffff" stroke-width="1.5">
      <path d="M18.037 6.635c-0.011-0.001-0.023-0.001-0.035-0.001-0.414 0-0.75 0.336-0.75 0.75 0 0.399 0.312 0.726 0.706 0.749l0.002 0c3.533 0.231 6.311 3.153 6.311 6.723 0 0.186-0.008 0.37-0.022 0.552l0.002-0.024c0 0.414 0.336 0.75 0.75 0.75s0.75-0.336 0.75-0.75v0c0.009-0.143 0.014-0.31 0.014-0.479 0-4.38-3.397-7.967-7.7-8.269l-0.026-0.001zM17.963 2.749c0.449 0.022 10.998 0.688 10.998 12.635 0 0.414 0.336 0.75 0.75 0.75s0.75-0.336 0.75-0.75v0c0.015-0.238 0.024-0.515 0.024-0.795 0-7.059-5.471-12.841-12.405-13.335l-0.043-0.002c-0.009-0-0.019-0.001-0.029-0.001-0.403 0-0.732 0.314-0.757 0.71l-0 0.002c-0.001 0.011-0.001 0.024-0.001 0.037 0 0.401 0.315 0.729 0.711 0.749l0.002 0zM30.637 23.15c-0.109-0.675-0.334-1.281-0.654-1.823l0.013 0.024c-0.114-0.186-0.301-0.317-0.521-0.353l-0.004-0.001-8.969-1.424c-0.035-0.006-0.076-0.009-0.117-0.009-0.207 0-0.395 0.083-0.531 0.218l0-0c-0.676 0.68-1.194 1.516-1.496 2.451l-0.012 0.044c-4.016-1.64-7.141-4.765-8.742-8.675l-0.038-0.105c0.978-0.314 1.814-0.833 2.493-1.509l-0 0c0.136-0.136 0.22-0.324 0.22-0.531 0-0.041-0.003-0.081-0.010-0.12l0.001 0.004-1.425-8.969c-0.036-0.224-0.167-0.412-0.35-0.524l-0.003-0.002c-0.505-0.301-1.094-0.522-1.724-0.626l-0.029-0.004c-0.315-0.070-0.677-0.111-1.048-0.111-0.025 0-0.050 0-0.075 0.001l0.004-0h-0.006c-3.497 0.024-6.326 2.855-6.347 6.351v0.002c0.015 12.761 10.355 23.102 23.115 23.117h0.002c3.5-0.023 6.331-2.854 6.354-6.351v-0.002c0-0.020 0-0.044 0-0.068 0-0.356-0.036-0.703-0.106-1.038l0.006 0.033zM24.383 29.076c-11.933-0.014-21.602-9.684-21.616-21.616v-0.001c0.019-2.673 2.182-4.835 4.854-4.853h0.002c0.016-0 0.036-0 0.055-0 0.272 0 0.537 0.030 0.793 0.086l-0.024-0.005c0.366 0.060 0.695 0.161 1.003 0.3l-0.025-0.010 1.302 8.202c-0.628 0.528-1.404 0.901-2.257 1.050l-0.029 0.004c-0.355 0.064-0.62 0.37-0.62 0.739 0 0.088 0.015 0.172 0.043 0.25l-0.002-0.005c1.772 5.072 5.695 8.994 10.646 10.729l0.121 0.037c0.073 0.026 0.157 0.041 0.245 0.041 0.368 0 0.674-0.265 0.737-0.615l0.001-0.005c0.153-0.882 0.526-1.658 1.061-2.295l-0.006 0.007 8.201 1.303c0.133 0.294 0.237 0.636 0.296 0.994l0.003 0.024c0.046 0.219 0.073 0.471 0.073 0.729 0 0.018-0 0.035-0 0.053l0-0.003c-0.016 2.675-2.179 4.84-4.852 4.859h-0.002z"></path>
    </g>
  </symbol>
  <symbol fill="inherit" xmlns="http://www.w3.org/2000/svg" stroke="#ffffff" stroke-width="0.00024000000000000003" transform="matrix(1, 0, 0, 1, 0, 0)rotate(0)" viewBox="-1.44 -1.44 26.88 26.88" id="email">
    <g id="SVGRepo_bgCarrier" stroke-width="0" transform="translate(0,0), scale(1)">
      <rect fill="#205e99" x="-1" y="-1" width="26" height="26" rx="13.44" strokewidth="0"></rect>
    </g>
    <g id="SVGRepo_tracerCarrier" stroke-linecap="round" stroke-linejoin="round" stroke="#ffffff" stroke-width="3.8">
      <path fill-rule="evenodd" clip-rule="evenodd" d="M22 12C22 17.5228 17.5228 22 12 22C6.47715 22 2 17.5228 2 12C2 6.47715 6.47715 2 12 2C17.5228 2 22 6.47715 22 12ZM7.005 9C7.005 8.45 7.45 8 8 8H16C16.55 8 17 8.45 17 9V15C17 15.55 16.55 16 16 16H8C7.45 16 7 15.55 7 15L7.005 9ZM12 12.5L8.00001 9.99997V15H16V9.99997L12 12.5ZM12 11.5L8.00001 9.00001H16L12 11.5Z"></path>
    </g>
    <g id="SVGRepo_iconCarrier">
      <path fill-rule="evenodd" clip-rule="evenodd" d="M22 12C22 17.5228 17.5228 22 12 22C6.47715 22 2 17.5228 2 12C2 6.47715 6.47715 2 12 2C17.5228 2 22 6.47715 22 12ZM7.005 9C7.005 8.45 7.45 8 8 8H16C16.55 8 17 8.45 17 9V15C17 15.55 16.55 16 16 16H8C7.45 16 7 15.55 7 15L7.005 9ZM12 12.5L8.00001 9.99997V15H16V9.99997L12 12.5ZM12 11.5L8.00001 9.00001H16L12 11.5Z"></path>
    </g>
  </symbol>
  <symbol xmlns="http://www.w3.org/2000/svg" xmlns:xlink="http://www.w3.org/1999/xlink" fill-rule="nonzero" viewBox="0,0,256,256" id="github">
    <g>
      <g transform="" fill-rule="nonzero" stroke="#205e99" stroke-width="21.33333" stroke-linecap="butt" stroke-linejoin="round" stroke-miterlimit="10" stroke-dasharray="" stroke-dashoffset="0" font-family="none" font-weight="none" font-size="none" text-anchor="none">
        <path d="M234.66667,128c0,58.81561 -47.85102,106.66667 -106.66667,106.66667c-58.81565,0 -106.66667,-47.85106 -106.66667,-106.66667c0,-58.81561 47.85102,-106.66667 106.66667,-106.66667c58.81565,0 106.66667,47.85106 106.66667,106.66667z" id="strokeMainSVG"></path>
      </g>
      <g fill="#ffffff" fill-rule="nonzero" stroke="none" stroke-width="1" stroke-linecap="butt" stroke-linejoin="miter" stroke-miterlimit="10" stroke-dasharray="" stroke-dashoffset="0" font-family="none" font-weight="none" font-size="none" text-anchor="none">
        <g transform="scale(5.33333,5.33333)">
          <path d="M24,4c-11.02793,0 -20,8.97207 -20,20c0,11.02793 8.97207,20 20,20c11.02793,0 20,-8.97207 20,-20c0,-11.02793 -8.97207,-20 -20,-20zM24,7c9.40662,0 17,7.59339 17,17c0,7.66536 -5.04306,14.12252 -12,16.25195v-5.11523c0,-1.91008 -1.10068,-3.5481 -2.69141,-4.36328c3.13805,-0.60035 5.72121,-2.3751 6.93703,-4.76606c1.21582,-2.39096 0.9149,-5.10432 -0.80812,-7.28668c0.44354,-1.36529 0.93902,-3.76003 -0.23828,-5.64453c-2.26987,0 -3.73455,1.55591 -4.43359,2.52344c-1.19501,-0.39258 -2.47379,-0.5962 -3.76562,-0.59961c-1.29267,0.00115 -2.5728,0.20278 -3.76953,0.59375c-0.70074,-0.96798 -2.16424,-2.51758 -4.42969,-2.51758c-1.35107,2.16264 -0.51586,4.48839 -0.06836,5.4375c-1.84039,2.17401 -2.23014,4.93209 -1.04286,7.37992c1.18727,2.44783 3.80041,4.27375 6.99208,4.88571c-1.30614,0.67319 -2.28436,1.89475 -2.58398,3.37695h-1.31445c-1.297,0 -1.80095,-0.52702 -2.50195,-1.41602c-0.692,-0.889 -1.43608,-1.48638 -2.33008,-1.73437c-0.482,-0.051 -0.80672,0.31563 -0.38672,0.64063c1.419,0.966 1.51694,2.54703 2.08594,3.58203c0.518,0.932 1.5793,1.77148 2.7793,1.77148h1.57031v3.25195c-6.95694,-2.12943 -12,-8.58659 -12,-16.25195c0,-9.40661 7.59339,-17 17,-17z"></path>
        </g>
      </g>
    </g>
  </symbol>
  <symbol xmlns="http://www.w3.org/2000/svg" xmlns:xlink="http://www.w3.org/1999/xlink" fill-rule="nonzero" viewBox="0,0,256,256" id="in">
    <g fill="#205e99" fill-rule="nonzero" stroke="none" stroke-width="1" stroke-linecap="butt" stroke-linejoin="miter" stroke-miterlimit="10" stroke-dasharray="" stroke-dashoffset="0" font-family="none" font-weight="none" font-size="none" text-anchor="none">
      <path d="M61.824,248.32c-29.90291,0 -54.144,-24.24109 -54.144,-54.144v-132.352c0,-29.90291 24.24109,-54.144 54.144,-54.144h132.352c29.90291,0 54.144,24.24109 54.144,54.144v132.352c0,29.90291 -24.24109,54.144 -54.144,54.144z" id="shape"></path>
    </g>
    <g fill="#ffffff" fill-rule="nonzero" stroke="#ffffff" stroke-width="32" stroke-linecap="butt" stroke-linejoin="round" stroke-miterlimit="10" stroke-dasharray="" stroke-dashoffset="0" font-family="none" font-weight="none" font-size="none" text-anchor="none">
      <path d="M224,197.33333c0,14.73067 -11.936,26.66667 -26.66667,26.66667h-138.66667c-14.72533,0 -26.66667,-11.936 -26.66667,-26.66667v-138.66667c0,-14.73067 11.94133,-26.66667 26.66667,-26.66667h138.66667c14.73067,0 26.66667,11.936 26.66667,26.66667z" id="strokeMainSVG"></path>
    </g>
    <g fill-rule="nonzero" stroke="none" stroke-width="1" stroke-linecap="butt" stroke-linejoin="miter" stroke-miterlimit="10" stroke-dasharray="" stroke-dashoffset="0" font-family="none" font-weight="none" font-size="none" text-anchor="none">
      <g transform="scale(5.33333,5.33333)">
        <path d="M42,37c0,2.762 -2.238,5 -5,5h-26c-2.761,0 -5,-2.238 -5,-5v-26c0,-2.762 2.239,-5 5,-5h26c2.762,0 5,2.238 5,5z"></path>
        <path d="M12,19h5v17h-5zM14.485,17h-0.028c-1.492,0 -2.457,-1.112 -2.457,-2.501c0,-1.419 0.995,-2.499 2.514,-2.499c1.521,0 2.458,1.08 2.486,2.499c0,1.388 -0.965,2.501 -2.515,2.501zM36,36h-5v-9.099c0,-2.198 -1.225,-3.698 -3.192,-3.698c-1.501,0 -2.313,1.012 -2.707,1.99c-0.144,0.35 -0.101,1.318 -0.101,1.807v9h-5v-17h5v2.616c0.721,-1.116 1.85,-2.616 4.738,-2.616c3.578,0 6.261,2.25 6.261,7.274l0.001,9.726z" fill="#ffffff"></path>
      </g>
    </g>
  </symbol>
</svg>